<svg viewBox="0 0 20 20" xmlns="http://www.w3.org/2000/svg" xmlns:xlink="http://www.w3.org/1999/xlink">
  <defs>
    <path id="a" d="M0 0h19.9998v19.9996H0z"/>
  </defs>
  <g fill="none" fill-rule="evenodd">
    <mask id="b" fill="#fff">
      <use xlink:href="#a"/>
    </mask>
    <path d="M9.9998-.0004c-5.5234 0-10 4.4766-10 10 0 5.5233 4.4766 10 10 10 5.5233 0 10-4.4767 10-10 0-5.5234-4.4767-10-10-10m0 1.111c4.901 0 8.8889 3.9878 8.8889 8.889 0 4.901-3.9878 8.8888-8.889 8.8888-4.901 0-8.8888-3.9877-8.8888-8.8888 0-4.9012 3.9878-8.889 8.8889-8.889" fill="#333" mask="url(#b)"/>
    <path d="M16.6664 16.6662c0-3.681-2.9855-6.6666-6.6666-6.6666S3.333 12.985 3.333 16.6662M12.7776 6.6662c0-1.5333-1.2434-2.7778-2.7778-2.7778-1.5345 0-2.7778 1.2445-2.7778 2.7778 0 1.5345 1.2433 2.7778 2.7778 2.7778 1.5344 0 2.7778-1.2433 2.7778-2.7778z" stroke="#333" mask="url(#b)"/>
  </g>
</svg>
