<svg viewBox="0 0 25 20" xmlns="http://www.w3.org/2000/svg">
  <path d="M15.5589 9.4756c.6244-.3334 1.2678-.8067 1.8655-1.4045 1.7634-1.7633 2.4667-3.9178 1.5723-4.8133-.2645-.2634-.6367-.3878-1.0778-.3878-1.0533 0-2.4922.7156-3.7356 1.9589-.6033.6033-1.071 1.2511-1.4055 1.8811V1.1111h10.5555v8.3645H15.559zm-2.7811 9.4133h10.5555v-8.3022H12.7778v8.3022zm-11.6667 0h10.5556v-8.3022H1.111v8.3022zm0-17.7778h10.5556V6.709c-.3345-.6289-.8023-1.2767-1.4045-1.88C9.0178 3.5856 7.579 2.87 6.5256 2.87c-.44 0-.8134.1244-1.0767.3878-.8956.8955-.1911 3.05 1.5711 4.8133.5989.5978 1.2422 1.0711 1.8656 1.4045H1.111V1.111zM10.7567 8.92c-.6545 0-1.8211-.5056-2.9511-1.6344-1.579-1.58-1.7856-3.0267-1.5712-3.2423.0312-.031.1345-.0622.2912-.0622.6555 0 1.821.5045 2.95 1.6333 1.58 1.58 1.7877 3.0278 1.5722 3.2423-.0311.0322-.1345.0633-.2911.0633zm2.6989-1.0133c.24-.7356.791-1.57 1.5133-2.2923 1.1289-1.1288 2.2944-1.6333 2.95-1.6333.1589 0 .26.0311.2922.0622.0611.0623.1278.3756-.06.9511-.2411.7356-.7922 1.57-1.5122 2.2912-1.13 1.1288-2.2967 1.6344-2.9511 1.6344-.1567 0-.26-.0311-.2911-.0633-.0611-.0611-.129-.3756.0589-.95zM0 0v20h24.4444V0H0z" fill="#333" fill-rule="evenodd"/>
</svg>
