<svg viewBox="0 0 205 24" xmlns="http://www.w3.org/2000/svg">
  <path id="logo-large" fill="#333" fill-rule="evenodd" d="M128.9.875c-.133 0-.232.033-.364.033l-.561.1c-.529.1-2.048.2-3.138.233l-5.944.033c-2.576 0-4.096 0-4.492-.033-.231-.033-.43-.033-.594-.033-.429 0-.628.133-.628.466 0 .433.2.532 1.123.632.826.067 1.156.167 1.321.433.165.233.199.4.199 1.265v16.641c0 1.065-.066 1.332-.463 1.498-.23.1-.562.167-1.057.199-.23.033-.395.033-.495.067a.556.556 0 0 0-.33.1c-.199.1-.298.233-.298.466 0 .332.166.466.628.466.198 0 .396 0 .66-.033.595-.067 1.586-.067 2.973-.067 1.618 0 2.774 0 3.468.067.23.033.428.033.594.033.462 0 .628-.134.628-.466 0-.433-.2-.533-1.124-.633-.792-.066-1.155-.2-1.32-.432-.165-.233-.2-.4-.2-1.265v-7.388c0-.367.265-.6.76-.6l3.337.033c1.056 0 1.881.2 2.311.567.397.332.528.698.726 1.897.1.533.265.699.595.699.364 0 .494-.134.494-.567v-.034c0-.232-.032-.598-.032-1.03-.033-.6-.033-1.165-.033-1.731 0-1.565.065-2.53.231-3.362.034-.1.034-.2.034-.3 0-.233-.166-.399-.463-.399-.297 0-.495.2-.627.567-.2.732-.33 1.13-.364 1.198-.066.132-.298.298-.56.4-.53.198-1.256.299-2.147.299h-3.699c-.33 0-.563-.234-.563-.6V3.637c0-.466.265-.632.926-.632h5.713c.726 0 1.255.134 1.52.366.296.266.33.4.396 1.331.066.533.296.832.726.832.33 0 .462-.166.462-.531 0-.167.033-.566.066-1.232l.099-1.298c0-.2.066-.433.133-.666.033-.133.033-.233.033-.332 0-.3-.298-.6-.66-.6zm75.376 7.241c-.526-.265-.526-.265-.79-.43-.23-.068-.492-.1-.756-.1-.592 0-1.217.198-1.58.564-.098.098-.362.364-.756.828L198.617 11l-.131.167V9.94c0-.53.033-.928.033-1.194.033-.132.033-.232.033-.332 0-.43-.264-.728-.692-.728-.198 0-.46.031-.79.165-1.348.465-3.126 1.027-3.85 1.26-.394.099-.493.2-.493.431 0 .365.198.431 1.12.498 1.02.032 1.348.496 1.348 1.89v7.427c0 2.72-.132 3.151-.888 3.151l-.494.033c-.395 0-.626.2-.626.497 0 .299.166.398.757.398h.626c1.02-.066 1.743-.066 2.204-.066l2.633.033c.757 0 1.25.033 1.48.033h.132c.394 0 .56-.1.56-.398 0-.431-.199-.497-1.448-.497h-.428c-1.217 0-1.35-.365-1.35-3.117v-5.405c0-.597.527-1.625 1.284-2.42.527-.565 1.052-.863 1.546-.863.363 0 .527.066.955.398.427.364.756.53.888.53.329 0 .658-.332 1.316-1.425l.527-.797c.065-.165.131-.298.131-.43 0-.366-.23-.63-.724-.896zm-16.334 3.973c0-1.93-1.255-3.428-2.84-3.428-.76 0-1.486.3-1.915.733-.76.798-1.388 2.296-1.388 3.294 0 .166.133.267.33.267h2.84c1.421 0 2.445-.133 2.774-.366.133-.067.199-.233.199-.5zm3.632 1.332c0 .631-.296.832-1.189.832h-8.321c-.397 0-.463.132-.463.765 0 3.827 2.213 6.524 5.317 6.524 1.19 0 2.378-.433 3.533-1.265.165-.134.331-.2.43-.2.033 0 .1 0 .165.066.133.1.232.3.232.467 0 .233-.1.399-.43.665-2.444 1.93-3.764 2.496-5.78 2.496-3.995 0-7.034-3.528-7.034-8.22 0-4.793 3.039-8.022 7.53-8.022 3.566 0 6.01 2.397 6.01 5.892zm-14.769-5.493h-.066l-.627.034c-.165.034-.43.034-.792.034h-.33c-1.057 0-1.784-.034-2.147-.068h-.463c-.397 0-.628.167-.628.467 0 .366.166.432 1.057.499.859.033 1.255.1 1.387.2.165.133.298.466.298.832 0 .5-.133 1.165-.33 1.698l-2.643 7.555-3.401-10.684c-.264-.8-.33-.865-.627-.865-.331 0-.827.132-1.124.298-.231.167-.263.233-.494.8L162.01 19.31l-2.412-8.054c-.165-.565-.23-.966-.23-1.33 0-.367.132-.7.297-.8.165-.1.264-.133 1.057-.167.494-.033.726-.199.726-.532s-.198-.5-.528-.5c-.198 0-.463 0-.76.034-.76.067-1.354.067-1.784.067-.131 0-.791 0-1.947-.067-.33-.034-.76-.034-.893-.034-.66 0-.953.134-.953.5 0 .2.033.3.231.4l.294.1c.231.132.33.233.494.698l.298.865 3.863 12.515.133.433a.527.527 0 0 0 .495.399c.463 0 1.123-.2 1.42-.433.1-.066.199-.166.231-.266.034-.067.067-.166.133-.366l3.666-10.618 3.301 10.884c.166.6.332.799.694.799.199 0 .727-.133 1.222-.333.166-.066.33-.2.396-.3l.066-.232 4.261-12.048c.363-.966.726-1.698 1.122-2.064.364-.366.397-.366.397-.532 0-.267-.198-.4-.496-.4zM150.4 15.65c0-4.226-1.42-6.889-3.665-6.889-2.246 0-3.667 2.663-3.667 6.89 0 4.193 1.42 6.89 3.667 6.89 2.245 0 3.665-2.697 3.665-6.89zm3.633 0c0 4.826-2.972 8.154-7.298 8.154-4.294 0-7.266-3.328-7.266-8.154 0-4.826 2.972-8.154 7.266-8.154 4.326 0 7.298 3.328 7.298 8.154zm-15.419 6.99a.614.614 0 0 0-.263-.067c-.1-.033-.298-.033-.595-.066-.925-.1-1.056-.5-1.056-3.095V4.018l.033-.931c0-.533.032-.899.098-1.065.067-.267.067-.333.067-.433 0-.366-.231-.633-.561-.633-.1 0-.266.033-.43.067-.925.233-1.685.433-2.246.532-1.52.3-1.782.367-1.982.5-.132.066-.23.133-.23.232 0 .4.164.5.825.5.53 0 .892.167.991.432.132.267.264.933.264 1.399v14.727c0 2.73-.132 3.162-.892 3.162l-.495.033c-.396 0-.627.2-.627.499 0 .3.164.4.792.4h.693c.595-.067 1.355-.067 2.213-.067.925 0 1.75 0 2.476.067h.463c.496 0 .628-.1.628-.4 0-.167-.066-.333-.166-.4zM64.097.704c-.004-.002-.007-.005-.011-.005C63.17.383 62.652.019 60.935 0c-2.081-.022-4.405 1.31-4.908 3.433-.76 3.2 1.524 5.787 4.122 5.215.629-.139 1.129-.511 1.368-1.263.145-.452.073-.732-.4-.786-1.17-.13-2.158-1.066-2.359-2.096-.247-1.26 0-2.476 1.432-2.918 1.175-.363 2.926.401 4.097 1.555 1.875 1.893 2.92 5.21 2.92 8.87 0 5.67-2.505 10.264-6.724 10.264-4.22 0-7.032-4.586-7-10.263.015-2.492.167-3.43.87-5.746.138-.453.026-.81-.258-1.018-.308-.226-.702-.142-.919.042-.986.835-2.81 3.429-3.01 6.727C49.763 18.622 54.279 24 60.483 24S70.8 18.634 70.8 12.016c0-5.23-2.325-9.351-6.703-11.312zm36.016 10.4c0-.63-.362-1.26-1.02-1.791-.593-.464-1.316-.73-1.975-.73-.723 0-1.513.333-2.139.896-1.25 1.16-1.777 2.918-1.777 5.737 0 3.814 1.613 6.897 3.587 6.897.692 0 1.613-.464 2.27-1.127.692-.697 1.054-1.592 1.054-2.454v-7.429zm5.297 10.512c0 .199-.164.331-.428.43l-1.875.697-1.778.697c-.295.1-.46.132-.591.132-.263 0-.494-.199-.494-.432l-.032-.496-.034-.432c-.032-.397-.065-.464-.297-.464-.098 0-.164.067-.328.167-1.382 1.094-2.566 1.558-4.013 1.558-3.39 0-5.759-3.05-5.759-7.395 0-4.975 3.16-9.02 7.107-9.02 1.053 0 1.974.299 2.665.863a.614.614 0 0 0 .362.132c.067 0 .132-.066.165-.132V4.406c0-.431-.132-1.127-.23-1.393-.133-.264-.461-.397-1.021-.43-.658 0-.79-.1-.79-.53 0-.067.066-.133.198-.2.23-.133.46-.2 1.975-.498a24.443 24.443 0 0 0 2.269-.53c.165-.033.296-.066.428-.066.297 0 .527.265.527.663 0 .066 0 .133-.066.398-.033.2-.066.53-.099 1.061l-.033.929v15.22c0 1.193.066 1.491.297 1.756.066.067.164.1.263.134.099 0 .33.066.657.132.133 0 .231.033.33.033.395.033.625.199.625.53zM83.458 11.103c0-.63-.362-1.26-1.02-1.79-.592-.464-1.316-.73-1.974-.73-.724 0-1.513.333-2.14.896-1.25 1.16-1.775 2.918-1.775 5.737 0 3.814 1.612 6.897 3.585 6.897.691 0 1.613-.464 2.27-1.127.692-.697 1.054-1.592 1.054-2.454v-7.429zm5.298 10.513c0 .199-.165.331-.429.43l-1.875.697-1.777.697c-.295.1-.46.132-.591.132-.265 0-.495-.199-.495-.432l-.032-.496-.033-.432c-.033-.397-.066-.464-.297-.464-.099 0-.164.067-.33.167-1.38 1.094-2.565 1.558-4.013 1.558-3.388 0-5.757-3.05-5.757-7.395 0-4.975 3.158-9.02 7.106-9.02 1.053 0 1.974.299 2.665.863a.617.617 0 0 0 .362.132c.067 0 .132-.066.165-.132V4.406c0-.431-.132-1.127-.23-1.393-.132-.264-.461-.397-1.02-.43-.659 0-.79-.1-.79-.53 0-.067.066-.133.198-.2.23-.133.46-.2 1.974-.498.559-.099 1.315-.264 2.27-.53.165-.033.296-.066.428-.066.296 0 .526.265.526.663 0 .066 0 .133-.066.398-.032.2-.066.53-.098 1.061l-.033.929v15.22c0 1.193.065 1.491.295 1.756.066.067.165.1.265.134.098 0 .328.066.657.132.132 0 .23.033.33.033.394.033.625.199.625.53zm-60.867 1.041a.611.611 0 0 0-.263-.067c-.099-.032-.296-.032-.592-.065-.922-.1-1.054-.498-1.054-3.084v-7.329c0-2.52-1.513-4.377-3.586-4.377-.658 0-1.218.166-2.105.63-1.448.762-2.764 1.625-3.423 2.255a.548.548 0 0 1-.164.066c-.099 0-.165-.066-.165-.198l.033-.067v-6.2l.033-.929c0-.53.032-.895.099-1.06.066-.266.066-.332.066-.432 0-.364-.23-.63-.559-.63-.099 0-.264.033-.428.067-.922.232-1.678.43-2.238.53-1.514.299-1.776.365-1.974.497-.132.067-.23.133-.23.232 0 .398.164.498.823.498.526 0 .888.166.987.43.131.266.262.93.262 1.394v14.556c0 2.72-.13 3.15-.888 3.15l-.494.034c-.394 0-.624.199-.624.497 0 .299.164.398.79.398h.69c.592-.066 1.35-.066 2.205-.066.92 0 1.744 0 2.467.066h.46c.495 0 .626-.1.626-.398 0-.165-.066-.33-.165-.398a.61.61 0 0 0-.262-.067c-.1-.032-.297-.032-.593-.065-.921-.1-1.053-.498-1.053-3.084v-5.505c0-1.46.658-2.388 2.435-3.482.79-.464 1.448-.696 2.073-.696 1.151 0 1.744 1.027 1.744 2.917v6.699c0 2.72-.132 3.15-.888 3.15l-.494.034c-.394 0-.625.199-.625.497 0 .299.197.398.79.398h.69c.593-.066 1.35-.066 2.238-.066.921 0 1.711 0 2.435.066h.46c.495 0 .625-.1.625-.398 0-.165-.065-.33-.164-.398zm10.777-10.546c0-1.93-1.255-3.428-2.84-3.428-.76 0-1.487.3-1.916.732-.76.8-1.387 2.297-1.387 3.295 0 .166.133.266.33.266h2.84c1.42 0 2.444-.132 2.774-.365.133-.067.199-.233.199-.5zm3.632 1.331c0 .632-.298.833-1.188.833h-8.323c-.396 0-.463.132-.463.765 0 3.828 2.213 6.524 5.318 6.524 1.188 0 2.378-.432 3.534-1.265.165-.133.33-.2.429-.2.033 0 .1 0 .165.067.132.1.23.299.23.466 0 .232-.098.399-.428.666-2.444 1.93-3.765 2.495-5.78 2.495-3.996 0-7.034-3.528-7.034-8.22 0-4.793 3.038-8.021 7.53-8.021 3.566 0 6.01 2.396 6.01 5.89zM10.402 20.6a.46.46 0 0 1 .066.2c0 .199-.231.499-.76.964-1.551 1.432-3.07 2.197-4.358 2.197-1.883 0-3.07-1.831-3.07-4.693V10.08c0-.4-.167-.599-.497-.599H.363c-.066 0-.099 0-.165-.033C.066 9.382 0 9.283 0 9.183c0-.167.133-.3.462-.5.892-.599 2.18-1.797 3.204-2.995.495-.566.859-.999 1.09-1.232.165-.2.33-.3.494-.3.231 0 .33.2.33.533 0 .133 0 .3-.032.433-.032.266-.032.433-.032.5v2.03c0 .298.098.399.462.399h3.764c.363 0 .529.166.529.533 0 .531-.397.898-.925.898H6.209c-.595 0-.728.1-.728.533v8.32c0 2.264.595 3.595 1.653 3.595.494 0 1.222-.366 1.915-1l.594-.531c.1-.1.265-.2.363-.2.033 0 .1 0 .133.033.098.067.198.2.263.367z"/>
</svg>