<svg viewBox="0 0 26 29" xmlns="http://www.w3.org/2000/svg">
  <path id="logo-small" fill="#333" fill-rule="evenodd" d="M25.969 14.519c-.254-3.985-2.547-7.119-3.79-8.128-.273-.222-.768-.323-1.155-.05-.358.251-.5.682-.326 1.23.886 2.798 1.077 3.932 1.096 6.942.04 6.86-3.5 12.402-8.81 12.402-4.887 0-7.94-4.706-8.395-10.796.035-.644.19-1.244.488-1.673.53-.765 1.498-1.128 2.606-.939 1.97.338 1.705 2.18 2.495 2.552.868.409 1.228-.59 1.124-1.404-.28-2.207-1.673-3.916-4.309-4.015-.862-.032-1.58.13-2.19.433.502-3.006 1.666-5.604 3.393-7.278 1.474-1.395 3.679-2.319 5.157-1.88 1.803.534 2.113 2.003 1.802 3.526-.253 1.245-1.495 2.376-2.97 2.534-.594.064-.685.403-.503.948.302.909.93 1.359 1.722 1.527 3.27.69 6.144-2.435 5.188-6.301C17.96 1.583 15.034-.026 12.416 0 10.255.023 9.6.463 8.45.844L8.436.85C2.926 3.22 0 8.201 0 14.52 0 22.516 5.176 29 12.984 29s13.492-6.499 12.985-14.481"/>
</svg>