
<svg width="25px" height="28px" viewBox="0 0 25 28" version="1.1" xmlns="http://www.w3.org/2000/svg" xmlns:xlink="http://www.w3.org/1999/xlink">
    <!-- Generator: Sketch 51.3 (57544) - http://www.bohemiancoding.com/sketch -->
    <desc>Created with Sketch.</desc>
    <defs></defs>
    <g id="Page-1" stroke="none" stroke-width="1" fill="none" fill-rule="evenodd">
        <g id="MENU" transform="translate(-349.000000, -72.000000)" fill="#333333">
            <path d="M373.70338,86.0181239 C373.461982,82.1709488 371.280554,79.1451458 370.098947,78.1701649 C369.839253,77.9562719 369.367672,77.8583101 368.999379,78.1214738 C368.659416,78.3649292 368.524848,78.7805424 368.689517,79.3091884 C369.532342,82.0115435 369.714128,83.1059335 369.731834,86.0123274 C369.770788,92.6354738 366.403621,97.9868556 361.351395,97.9868556 C356.702284,97.9868556 353.799025,93.4435139 353.365218,87.5634861 C353.39886,86.9409359 353.547004,86.3618598 353.829716,85.9479856 C354.334348,85.2089245 355.254491,84.8588125 356.308612,85.041404 C358.183129,85.3671705 357.930518,87.1455543 358.68245,87.5049409 C359.508158,87.8996865 359.849892,86.9362986 359.751326,86.1497058 C359.48455,84.0188913 358.159521,82.3686114 355.652295,82.2735479 C354.832488,82.2422465 354.149611,82.3981738 353.569432,82.6909 C354.046324,79.7891434 355.154155,77.2803933 356.796718,75.6637335 C358.199065,74.3171932 360.296093,73.425103 361.702572,73.8488314 C363.417732,74.364725 363.712248,75.7831426 363.416551,77.2537292 C363.175744,78.4553555 361.994137,79.5474269 360.59179,79.6998764 C360.026366,79.7613199 359.940195,80.0888254 360.113127,80.6157325 C360.399971,81.4927516 360.998447,81.9274934 361.750969,82.0892173 C364.861984,82.7564011 367.595262,79.7387133 366.686333,76.0057304 C366.083725,73.5288614 363.30205,71.9748044 360.810759,72.0003092 C358.755046,72.0217565 358.133552,72.4472238 357.038116,72.8153052 C357.032804,72.8164645 357.029262,72.8187831 357.024541,72.8211017 C351.783446,75.1090029 349,79.9184066 349,86.0181239 C349,93.739718 353.92415,100 361.351395,100 C368.77923,100 374.186174,93.7252266 373.70338,86.0181239" id="Fill-1"></path>
        </g>
    </g>
</svg>
